<?xml version="1.0"?>
<svg xmlns="http://www.w3.org/2000/svg" xmlns:xlink="http://www.w3.org/1999/xlink" xmlns:svgjs="http://svgjs.com/svgjs" version="1.1" width="512" height="512" x="0" y="0" viewBox="0 0 512 512" style="enable-background:new 0 0 512 512" xml:space="preserve" class=""><g><g xmlns="http://www.w3.org/2000/svg"><path d="m258.488 453.505c2.972 2.88 7.721 2.811 10.605-.166l13.189-13.61c2.819-2.909 2.819-7.53 0-10.439l-13.189-13.61c-2.882-2.974-7.63-3.049-10.605-.166-2.974 2.883-3.049 7.631-.166 10.605l.863.891h-24.083c-4.142 0-7.5 3.357-7.5 7.5s3.358 7.5 7.5 7.5h24.083l-.863.891c-2.883 2.973-2.808 7.721.166 10.604z" fill="#ffffff" data-original="#000000" style="" class=""/><path d="m352.471 465.12h-33.242c-4.143 0-7.5 3.357-7.5 7.5s3.357 7.5 7.5 7.5h33.242c11.65 0 21.129-9.479 21.129-21.129v-48.965c0-11.65-9.479-21.129-21.129-21.129h-192.942c-11.651 0-21.129 9.479-21.129 21.129v48.965c0 11.65 9.479 21.129 21.129 21.129h129.713c4.143 0 7.5-3.357 7.5-7.5s-3.357-7.5-7.5-7.5h-129.713c-3.38 0-6.129-2.749-6.129-6.129v-48.965c0-3.38 2.75-6.129 6.129-6.129h192.942c3.38 0 6.129 2.749 6.129 6.129v48.965c0 3.38-2.749 6.129-6.129 6.129z" fill="#ffffff" data-original="#000000" style="" class=""/><path d="m273.226 50.505-22.895 22.895-11.558-11.559c-2.928-2.927-7.677-2.929-10.606 0-2.929 2.93-2.929 7.678 0 10.606l16.861 16.862c1.406 1.406 3.314 2.196 5.303 2.196s3.897-.79 5.303-2.196l28.199-28.198c2.929-2.93 2.929-7.678 0-10.607-2.928-2.927-7.676-2.927-10.607.001z" fill="#ffffff" data-original="#000000" style="" class=""/><path d="m121.694 140.811c-4.142 0-7.5 3.357-7.5 7.5v95.428c0 4.143 3.358 7.5 7.5 7.5s7.5-3.357 7.5-7.5v-41.851h51.038v41.851c0 4.143 3.358 7.5 7.5 7.5s7.5-3.357 7.5-7.5v-95.428c0-4.143-3.358-7.5-7.5-7.5s-7.5 3.357-7.5 7.5v38.577h-51.038v-38.577c0-4.143-3.358-7.5-7.5-7.5z" fill="#ffffff" data-original="#000000" style="" class=""/><path d="m293.646 244.129v-75.962c0-4.143-3.357-7.5-7.5-7.5s-7.5 3.357-7.5 7.5v75.962c0 4.143 3.357 7.5 7.5 7.5s7.5-3.358 7.5-7.5z" fill="#ffffff" data-original="#000000" style="" class=""/><path d="m313.54 160.667c-4.143 0-7.5 3.357-7.5 7.5v75.962c0 4.143 3.357 7.5 7.5 7.5s7.5-3.357 7.5-7.5v-75.962c0-4.143-3.358-7.5-7.5-7.5z" fill="#ffffff" data-original="#000000" style="" class=""/><path d="m262.387 226.817c1.986 0 3.892-.788 5.298-2.191 1.41-1.407 2.202-3.317 2.202-5.309v-3.541c0-16.706-13.592-30.298-30.298-30.298-17.639 0-30.878 15.072-30.293 30.606l.087 2.402c.021 18.162 14.802 32.933 32.97 32.933 7.298 0 13.856-2.405 18.966-6.955.997-.887 1.947-1.866 2.824-2.91 2.664-3.172 2.252-7.903-.919-10.567-3.174-2.664-7.903-2.251-10.567.919-.413.492-.854.948-1.312 1.355-2.353 2.096-5.378 3.158-8.991 3.158-6.915 0-12.921-3.932-15.924-9.673l35.944.07h.013zm-37.548-15.073c1.783-6.487 7.721-11.266 14.751-11.266 7.061 0 13.02 4.809 14.774 11.323z" fill="#ffffff" data-original="#000000" style="" class=""/><path d="m397.806 218.449c0-18.18-14.791-32.971-32.971-32.971s-32.971 14.791-32.971 32.971 14.791 32.971 32.971 32.971 32.971-14.791 32.971-32.971zm-50.941 0c0-9.909 8.062-17.971 17.971-17.971s17.971 8.062 17.971 17.971-8.062 17.971-17.971 17.971-17.971-8.062-17.971-17.971z" fill="#ffffff" data-original="#000000" style="" class=""/><path d="m193.667 288.611c0 4.143 3.358 7.5 7.5 7.5h109.667c4.143 0 7.5-3.357 7.5-7.5s-3.357-7.5-7.5-7.5h-109.667c-4.142 0-7.5 3.358-7.5 7.5z" fill="#ffffff" data-original="#000000" style="" class=""/><path d="m143.667 324.123c0 4.143 3.358 7.5 7.5 7.5h209.667c4.143 0 7.5-3.357 7.5-7.5s-3.357-7.5-7.5-7.5h-209.667c-4.142 0-7.5 3.357-7.5 7.5z" fill="#ffffff" data-original="#000000" style="" class=""/><path d="m151.167 367.135h209.667c4.143 0 7.5-3.357 7.5-7.5s-3.357-7.5-7.5-7.5h-209.667c-4.142 0-7.5 3.357-7.5 7.5s3.358 7.5 7.5 7.5z" fill="#ffffff" data-original="#000000" style="" class=""/><path d="m486.466 65.223h-160.72c-.668-9.902-3.438-19.612-8.119-28.333-1.96-3.648-6.508-5.019-10.155-3.061-3.65 1.96-5.021 6.506-3.062 10.156 4.252 7.919 6.499 16.883 6.499 25.922 0 30.276-24.632 54.908-54.908 54.908s-54.908-24.632-54.908-54.908 24.631-54.907 54.907-54.907c10.97 0 21.558 3.225 30.62 9.325 3.438 2.313 8.098 1.402 10.41-2.033 2.313-3.436 1.403-8.097-2.033-10.41-11.546-7.774-25.031-11.882-38.997-11.882-36.972 0-67.313 28.854-69.733 65.223h-160.732c-14.08 0-25.535 11.454-25.535 25.534v235.801c0 4.143 3.358 7.5 7.5 7.5s7.5-3.357 7.5-7.5v-235.801c0-5.809 4.726-10.534 10.535-10.534h161.324c5.002 33.673 34.098 59.593 69.141 59.593s64.139-25.919 69.141-59.593h161.324c5.809 0 10.534 4.726 10.534 10.534v395.708c0 5.809-4.726 10.535-10.534 10.535h-460.93c-5.809 0-10.535-4.727-10.535-10.535v-129.92c0-4.143-3.358-7.5-7.5-7.5s-7.5 3.357-7.5 7.5v129.92c0 14.08 11.455 25.535 25.535 25.535h460.931c14.08 0 25.534-11.455 25.534-25.535v-395.708c0-14.08-11.454-25.534-25.534-25.534z" fill="#ffffff" data-original="#000000" style="" class=""/></g></g></svg>
