<?xml version="1.0"?>
<svg xmlns="http://www.w3.org/2000/svg" xmlns:xlink="http://www.w3.org/1999/xlink" xmlns:svgjs="http://svgjs.com/svgjs" version="1.1" width="512" height="512" x="0" y="0" viewBox="0 0 512 512" style="enable-background:new 0 0 512 512" xml:space="preserve" class=""><g><g xmlns="http://www.w3.org/2000/svg"><g><path d="m461.351 388.981 50.649-327.766h-387.331c-41.74 0-67.704 26.064-74.021 61.805l-50.648 327.765h387.33c42.771 0 67.704-26.064 74.021-61.804z" fill="#e5e5e5" data-original="#e9f2ff" style="" class=""/></g><path d="m512 61.215s-75.718 243.583-102.158 327.766c-10.875 34.626-31.251 61.805-74.021 61.805h51.509c42.77 0 67.704-26.064 74.021-61.805z" fill="#c9cdd1" data-original="#deebff" style="" class=""/><g><path d="m376.72 323.801c-11.865 20.451-5.568 40.368 17.062 48.218l118.218-310.804z" fill="#767d8b" data-original="#b5ceff" style="" class=""/><path d="m461.42 387.159 50.58-325.932-135.28 262.574s10.799-11.141 30.716-7.021c25.21 5.216 53.984 28.937 53.984 70.379z" fill="#abb9c3" data-original="#91a8dd" style="" class=""/></g><g><path d="m135.28 188.199c11.865-20.451 5.568-40.368-17.062-48.218l-118.218 310.804z" fill="#767d8b" data-original="#b5ceff" style="" class=""/><path d="m50.58 124.841-50.58 325.932 135.28-262.574s-10.799 11.141-30.716 7.021c-25.21-5.216-53.984-28.937-53.984-70.379z" fill="#abb9c3" data-original="#91a8dd" style="" class=""/></g></g></g></svg>
